<?xml version="1.0" standalone="no"?>
<!DOCTYPE svg PUBLIC "-//W3C//DTD SVG 20010904//EN"
 "http://www.w3.org/TR/2001/REC-SVG-20010904/DTD/svg10.dtd">
<svg version="1.0" xmlns="http://www.w3.org/2000/svg"
 width="578.000000pt" height="361.000000pt" viewBox="0 0 578.000000 361.000000"
 preserveAspectRatio="xMidYMid meet">

<g transform="translate(0.000000,361.000000) scale(0.100000,-0.100000)"
fill="#000000" stroke="none">
<path d="M3064 3276 c-62 -27 -100 -108 -88 -187 5 -30 19 -54 50 -86 42 -44
44 -45 101 -42 32 1 70 -1 84 -5 39 -11 71 18 63 59 -3 16 -1 48 4 70 29 132
-95 243 -214 191z m113 -83 c3 -7 -8 -7 -36 0 -23 6 -36 14 -30 18 15 9 62 -4
66 -18z m-163 -41 c-4 -18 -10 -32 -15 -32 -12 0 -11 13 1 46 14 35 22 26 14
-14z m142 20 c37 -24 37 -71 -1 -102 -13 -11 -20 -9 -45 15 -17 16 -30 39 -30
51 0 34 47 56 76 36z m51 -79 c-3 -10 -5 -4 -5 12 0 17 2 24 5 18 2 -7 2 -21
0 -30z m-157 -77 c17 -17 33 -21 85 -21 68 0 85 -9 36 -18 -84 -17 -173 46
-171 122 1 9 7 -2 15 -23 7 -22 23 -49 35 -60z"/>
<path d="M2655 3273 c-45 -11 -48 -21 -41 -143 9 -146 17 -164 75 -168 25 -2
55 -1 69 3 19 5 22 8 12 20 -10 12 -9 15 6 16 11 1 25 1 32 0 7 -1 12 9 12 23
0 30 -32 50 -64 42 -37 -9 -39 7 -4 24 24 11 33 22 33 40 0 21 -5 26 -32 28
-44 4 -42 16 5 28 33 8 37 13 40 43 2 20 -2 37 -10 42 -14 9 -99 10 -133 2z
m110 -63 c-28 -12 -57 -12 -50 0 3 6 21 10 38 9 27 0 29 -2 12 -9z m-128 -62
c-2 -13 -4 -3 -4 22 0 25 2 35 4 23 2 -13 2 -33 0 -45z m10 -80 c-2 -13 -4 -5
-4 17 -1 22 1 32 4 23 2 -10 2 -28 0 -40z m106 45 c-7 -2 -19 -2 -25 0 -7 3
-2 5 12 5 14 0 19 -2 13 -5z m-93 -88 c0 -8 -2 -15 -4 -15 -2 0 -6 7 -10 15
-3 8 -1 15 4 15 6 0 10 -7 10 -15z m87 -41 c-3 -3 -12 -4 -19 -1 -8 3 -5 6 6
6 11 1 17 -2 13 -5z"/>
<path d="M3385 3226 c-24 -17 -67 -183 -59 -228 7 -44 49 -94 88 -104 43 -11
93 4 120 36 26 31 55 117 63 186 5 37 2 44 -22 60 -40 26 -56 10 -85 -87 -18
-58 -31 -85 -43 -87 -28 -6 -30 22 -7 104 16 57 19 83 12 99 -12 27 -45 37
-67 21z m-10 -102 c-8 -27 -15 -66 -15 -87 0 -22 -4 -36 -10 -32 -5 3 -7 20
-4 38 10 51 35 139 40 134 2 -2 -3 -26 -11 -53z m141 -66 c-8 -29 -21 -62 -29
-72 -8 -11 -3 14 11 57 28 86 42 98 18 15z m-76 -142 c8 -3 2 -4 -15 0 -16 3
-37 12 -45 21 -14 14 -12 14 15 0 17 -8 37 -17 45 -21z"/>
<path d="M2335 3202 c-44 -16 -50 -22 -53 -50 -3 -31 40 -209 59 -244 14 -25
64 -23 125 6 66 31 91 64 99 131 8 63 -12 116 -57 148 -37 28 -112 31 -173 9z
m144 -78 c12 -15 21 -34 20 -43 0 -12 -3 -10 -9 5 -10 26 -48 51 -86 57 -23 3
-20 4 13 6 34 1 45 -4 62 -25z m-144 -93 c14 -57 24 -105 22 -107 -4 -4 -57
192 -57 210 0 23 10 -7 35 -103z m117 72 c31 -28 16 -93 -22 -93 -14 0 -22 11
-30 41 -6 23 -9 47 -6 55 7 19 35 18 58 -3z m38 -152 c0 -10 -61 -34 -68 -27
-3 4 40 27 66 35 1 1 2 -3 2 -8z"/>
<path d="M3686 3118 c-30 -17 -111 -227 -100 -260 6 -19 78 -60 126 -72 32 -7
58 14 58 49 0 16 -11 30 -35 45 -43 26 -44 34 -6 27 39 -8 68 21 51 52 -6 12
-17 21 -25 21 -8 0 -15 5 -15 10 0 12 17 12 45 0 24 -9 65 23 65 52 0 33 -131
94 -164 76z m-36 -140 c-17 -46 -36 -87 -41 -93 -12 -12 -8 0 34 108 16 43 32
75 34 73 3 -3 -9 -42 -27 -88z m146 34 c-7 -7 -46 9 -46 18 0 5 11 4 25 -2 14
-6 23 -13 21 -16z m-101 -184 c14 -6 25 -15 25 -20 0 -7 -55 15 -69 28 -9 9
20 3 44 -8z"/>
<path d="M1950 3039 c-61 -25 -100 -85 -100 -154 0 -81 37 -136 106 -160 107
-37 219 66 199 184 -17 102 -117 165 -205 130z m110 -89 c11 -11 20 -28 19
-37 0 -15 -2 -14 -11 3 -10 22 -47 44 -74 44 -8 0 -27 -7 -42 -16 l-27 -16 24
21 c30 27 84 28 111 1z m-20 -30 c23 -23 24 -29 11 -63 -20 -53 -101 -35 -101
23 0 55 52 78 90 40z m-117 -129 c18 -11 46 -27 62 -35 l30 -16 -31 0 c-56 0
-115 67 -113 127 1 23 3 20 11 -14 7 -31 17 -47 41 -62z m172 -11 c-10 -11
-23 -20 -28 -20 -13 0 24 39 37 39 5 1 1 -8 -9 -19z"/>
<path d="M3908 2983 c-9 -10 -39 -62 -67 -115 -56 -105 -59 -130 -15 -150 19
-9 28 -8 43 6 23 21 121 197 121 217 0 17 -40 59 -57 59 -5 0 -17 -8 -25 -17z
m-38 -126 c-22 -41 -40 -81 -40 -91 0 -9 -4 -14 -10 -11 -5 3 -10 9 -10 13 0
10 89 162 96 162 2 0 -14 -33 -36 -73z"/>
<path d="M1605 2911 c-3 -11 -21 -29 -40 -40 -36 -21 -49 -61 -19 -61 8 0 13
-4 9 -9 -3 -5 0 -13 6 -17 13 -8 31 16 24 33 -2 7 -1 12 3 11 16 -4 48 13 60
33 11 17 11 25 -3 45 -19 29 -32 31 -40 5z"/>
<path d="M1648 2812 c-32 -7 -33 -51 -3 -167 35 -137 48 -165 78 -165 31 0 47
18 47 51 0 38 56 91 89 86 27 -5 61 23 61 51 0 28 -26 47 -125 93 -112 52
-126 56 -147 51z m31 -187 c-2 -17 -27 69 -27 90 0 11 6 -2 14 -30 7 -27 13
-54 13 -60z m91 70 c14 -8 19 -14 10 -14 -8 0 -24 6 -34 14 -25 19 -9 19 24 0z
m-10 -35 c0 -5 -4 -10 -10 -10 -5 0 -10 5 -10 10 0 6 5 10 10 10 6 0 10 -4 10
-10z m108 -17 c-10 -2 -26 -2 -35 0 -10 3 -2 5 17 5 19 0 27 -2 18 -5z m-84
-42 c-10 -10 -21 -16 -24 -14 -3 3 4 11 14 19 28 20 33 17 10 -5z m-66 -73
c13 -13 16 -28 4 -28 -13 0 -30 36 -36 76 l-5 39 12 -37 c7 -20 18 -43 25 -50z"/>
<path d="M3977 2808 c-21 -17 -47 -79 -47 -115 0 -33 31 -87 57 -101 18 -10
53 -15 84 -13 22 1 91 73 130 133 32 49 35 84 8 101 -29 18 -63 -2 -107 -63
-24 -33 -50 -60 -58 -60 -18 0 -18 9 1 54 14 34 14 37 -5 56 -23 23 -39 25
-63 8z m-11 -80 c-10 -39 -11 -40 -14 -15 -3 23 11 57 23 57 1 0 -3 -19 -9
-42z m138 -28 c-15 -22 -31 -40 -36 -40 -5 0 5 18 22 40 17 22 34 40 36 40 2
0 -8 -18 -22 -40z m-100 -89 c-3 -3 -15 6 -27 18 l-22 24 27 -19 c14 -10 24
-21 22 -23z"/>
<path d="M2925 2703 c-161 -12 -246 -56 -535 -272 -180 -135 -222 -175 -238
-229 -34 -114 7 -221 108 -277 74 -41 88 -72 106 -237 16 -144 45 -281 69
-328 43 -83 119 -136 230 -161 91 -20 397 -18 510 5 124 24 148 32 177 64 34
37 42 63 94 317 57 279 57 281 104 310 77 48 91 74 115 205 21 114 13 186 -31
278 -23 47 -33 56 -91 85 -44 21 -91 57 -144 108 -59 59 -91 82 -136 99 -93
35 -194 45 -338 33z m300 -73 c48 -18 76 -39 136 -100 48 -48 98 -88 132 -104
69 -34 83 -49 107 -119 35 -100 21 -274 -27 -319 -18 -17 -36 -22 -76 -23
l-52 0 -6 98 c-6 82 -11 104 -33 137 -31 46 -83 67 -143 55 -34 -6 -36 -9 -19
-19 85 -52 92 -61 109 -140 9 -42 17 -82 17 -88 0 -7 -21 -9 -68 -4 -80 8
-102 2 -102 -29 0 -24 29 -38 145 -70 33 -9 68 -18 78 -21 24 -7 22 -33 -17
-229 -19 -93 -37 -190 -41 -215 -19 -122 -83 -160 -313 -186 -163 -19 -344 -8
-436 27 -67 25 -128 89 -150 157 -15 47 -59 362 -52 369 2 2 26 -9 52 -26 115
-70 264 -80 362 -25 59 33 67 49 20 40 -81 -15 -199 -18 -241 -7 -51 15 -119
66 -159 121 -25 33 -36 40 -64 40 -25 0 -38 6 -50 25 -28 43 2 125 46 125 9 0
25 7 36 15 16 13 17 16 4 24 -20 14 -86 3 -138 -22 -43 -21 -44 -21 -58 -2
-36 49 -10 111 78 187 215 185 448 323 584 348 89 16 272 5 339 -20z"/>
<path d="M4236 2644 c-100 -56 -121 -182 -45 -269 80 -91 211 -58 254 64 24
70 -2 157 -59 194 -37 25 -116 30 -150 11z m6 -31 c-7 -3 -24 -21 -37 -41 -14
-20 -25 -30 -25 -22 0 17 49 70 64 69 6 0 5 -3 -2 -6z m122 -59 c5 -14 4 -15
-9 -4 -17 14 -19 20 -6 20 5 0 12 -7 15 -16z m-26 -16 c24 -31 23 -57 -2 -83
-22 -21 -29 -24 -46 -15 -12 6 -26 22 -32 36 -10 21 -8 28 12 49 26 27 52 32
68 13z m-158 -35 c0 -19 -3 -24 -10 -17 -6 6 -8 18 -4 27 9 24 14 21 14 -10z
m193 -61 c-11 -14 -26 -28 -34 -30 -9 -3 -6 4 7 19 12 13 25 38 29 54 8 28 9
29 13 6 2 -13 -4 -35 -15 -49z m-137 -70 c-8 -7 -25 8 -37 31 -11 21 -10 21
15 -2 14 -14 24 -26 22 -29z"/>
<path d="M1464 2600 c-26 -10 -82 -74 -95 -107 -5 -14 -7 -34 -4 -43 3 -10 47
-50 97 -89 101 -80 135 -88 152 -40 7 21 4 32 -14 56 -19 26 -20 34 -10 53 6
12 12 42 13 66 0 48 -18 76 -65 100 -30 16 -44 16 -74 4z m51 -70 c3 -5 -3
-10 -14 -10 -11 0 -23 -4 -26 -10 -3 -5 -12 -10 -18 -10 -13 1 30 40 44 40 4
0 11 -4 14 -10z m-13 -45 c0 -5 -5 -11 -11 -13 -6 -2 -11 4 -11 13 0 9 5 15
11 13 6 -2 11 -8 11 -13z m74 -31 c-4 -14 -9 -24 -12 -21 -3 2 -2 17 2 31 3
15 9 25 11 22 3 -3 2 -17 -1 -32z m-14 -126 c23 -13 27 -18 14 -18 -17 0 -148
99 -163 124 -4 5 21 -12 55 -39 34 -28 76 -58 94 -67z"/>
<path d="M1792 870 c-13 -14 -27 -65 -46 -173 -32 -186 -32 -198 -1 -236 52
-60 106 -49 128 26 l15 48 17 -43 c20 -49 66 -92 99 -92 28 0 50 23 72 75 l17
40 13 -44 c25 -85 91 -118 135 -67 l20 23 29 -28 c38 -38 81 -39 110 -2 20 26
26 28 87 24 58 -3 68 -6 92 -33 47 -53 121 -31 121 37 0 27 -84 226 -148 351
-24 47 -68 72 -99 56 -33 -18 -49 -45 -119 -199 -38 -84 -72 -149 -75 -145 -4
4 -18 75 -33 157 -27 158 -42 193 -89 209 -39 14 -69 -12 -108 -93 -36 -76
-55 -88 -65 -43 -13 50 -56 132 -82 152 -32 26 -66 25 -90 0z m43 -20 c3 -5
-1 -10 -10 -10 -9 0 -13 5 -10 10 3 6 8 10 10 10 2 0 7 -4 10 -10z m275 -40
c0 -5 -4 -10 -10 -10 -5 0 -10 5 -10 10 0 6 5 10 10 10 6 0 10 -4 10 -10z
m-290 -12 c0 -7 -12 -75 -26 -151 -24 -127 -25 -139 -10 -156 22 -24 20 -33
-6 -29 -18 2 -24 11 -26 35 -5 51 45 313 60 313 4 0 8 -5 8 -12z m264 -30
c-14 -47 -60 -138 -67 -132 -6 6 2 29 40 117 18 40 39 51 27 15z m297 -159
c-34 -73 -61 -139 -61 -146 0 -7 5 -22 12 -33 14 -22 6 -35 -17 -27 -29 12
-17 71 43 198 63 137 72 153 79 146 2 -3 -23 -65 -56 -138z m157 -14 c12 -25
22 -52 22 -60 0 -29 -21 -14 -40 28 -36 79 -19 109 18 32z m-592 -65 c10 -25
24 -52 31 -61 26 -31 13 -50 -18 -26 -16 13 -59 140 -58 172 0 21 9 5 45 -85z
m198 -12 c4 -26 16 -58 27 -72 20 -25 13 -41 -14 -30 -21 8 -25 20 -32 105 -7
81 8 78 19 -3z m356 37 c0 -8 -7 -15 -15 -15 -16 0 -20 12 -8 23 11 12 23 8
23 -8z m107 -123 c41 -48 16 -58 -31 -13 -27 26 -39 31 -83 31 -56 0 -83 7
-83 22 0 6 32 7 83 3 79 -6 83 -7 114 -43z"/>
<path d="M3945 879 c-72 -10 -104 -25 -115 -54 -6 -15 -10 -104 -10 -199 0
-160 2 -175 21 -200 45 -57 129 -14 129 65 0 22 3 39 8 39 4 0 20 -20 36 -45
36 -57 55 -68 95 -54 30 11 61 52 61 81 0 7 -12 31 -26 52 l-26 38 22 41 c44
78 19 186 -51 223 -36 18 -77 22 -144 13z m-75 -253 c0 -124 3 -156 15 -166
22 -18 18 -32 -7 -28 -23 3 -23 5 -26 181 -2 120 1 176 8 172 6 -4 10 -66 10
-159z m163 154 c18 0 41 -45 31 -61 -3 -5 -18 4 -34 21 -15 16 -38 30 -50 30
-13 0 -19 4 -14 11 3 6 16 8 28 5 11 -3 29 -6 39 -6z m-18 -50 c8 -13 -13 -40
-31 -40 -17 0 -18 37 -1 43 19 8 25 8 32 -3z m24 -185 c24 -36 47 -65 52 -65
5 0 9 -4 9 -10 0 -5 -10 -10 -22 -10 -17 0 -34 18 -65 65 -45 69 -51 85 -30
85 7 0 33 -29 56 -65z"/>
<path d="M3551 840 c-77 -12 -81 -24 -81 -232 l0 -180 30 -30 31 -30 87 6
c110 9 138 20 151 58 15 42 15 42 -15 72 -22 22 -36 26 -81 26 -67 0 -69 22
-3 31 95 13 93 111 -2 113 -61 1 -53 19 12 29 60 8 85 27 95 69 5 21 1 33 -19
52 -22 23 -33 26 -93 25 -37 -1 -88 -5 -112 -9z m-31 -250 c0 -107 -4 -170
-10 -170 -6 0 -10 63 -10 170 0 107 4 170 10 170 6 0 10 -63 10 -170z m175
155 c-35 -16 -75 -19 -75 -6 0 6 19 12 43 14 23 2 47 4 52 4 6 1 -3 -5 -20
-12z m0 -145 c-3 -5 -22 -10 -41 -10 -21 0 -33 4 -29 10 3 6 22 10 41 10 21 0
33 -4 29 -10z m37 -172 c-13 -13 -152 -26 -140 -13 6 6 86 21 133 24 15 1 16
-2 7 -11z"/>
<path d="M2805 818 c-66 -36 -94 -100 -74 -168 15 -49 45 -78 112 -106 52 -22
71 -47 44 -57 -8 -3 -31 5 -50 19 -40 27 -88 31 -106 10 -19 -23 -16 -75 6
-104 48 -65 148 -89 226 -54 60 27 87 70 87 138 0 73 -28 111 -112 152 -38 17
-68 37 -68 42 0 21 32 22 60 1 36 -26 71 -27 94 -2 32 35 0 101 -61 127 -39
17 -130 18 -158 2z m5 -52 c0 -3 -4 -8 -10 -11 -5 -3 -10 -1 -10 4 0 6 5 11
10 11 6 0 10 -2 10 -4z m128 -26 c18 -11 39 -20 47 -20 18 0 20 -16 2 -23 -15
-6 -72 16 -81 32 -4 6 -16 11 -27 11 -11 0 -17 5 -14 10 10 16 37 12 73 -10z
m-162 -33 c-8 -44 19 -79 87 -113 64 -32 87 -52 87 -75 0 -27 -21 -34 -27 -9
-4 14 -29 33 -72 55 -37 18 -72 40 -79 47 -15 18 -21 88 -10 111 14 28 21 20
14 -16z m20 -282 c11 -8 39 -21 64 -29 43 -13 44 -14 18 -21 -38 -10 -115 26
-128 60 -7 19 -6 33 2 48 11 21 12 21 19 -11 4 -18 15 -40 25 -47z"/>
<path d="M3145 823 c-11 -2 -29 -6 -41 -8 -11 -3 -26 -16 -32 -30 -21 -45 17
-100 73 -107 l30 -3 5 -138 c5 -131 6 -140 29 -158 31 -25 75 -24 101 3 18 20
20 35 20 149 0 70 3 134 6 143 4 10 18 16 39 16 62 0 89 74 42 118 -21 20 -33
22 -138 21 -63 -1 -123 -3 -134 -6z m-25 -43 c0 -5 -5 -10 -11 -10 -5 0 -7 5
-4 10 3 6 8 10 11 10 2 0 4 -4 4 -10z m5 -40 c3 -5 17 -10 31 -10 13 0 24 -5
24 -11 0 -6 -16 -9 -37 -7 -27 2 -39 8 -41 21 -4 18 13 24 23 7z m280 -9 c-10
-9 -48 -15 -75 -11 -19 3 27 18 60 19 15 1 20 -3 15 -8z m-160 -311 c22 -18
18 -32 -7 -28 -22 3 -23 7 -26 137 -1 74 1 142 5 150 4 9 9 -43 11 -116 2
-101 6 -134 17 -143z"/>
<path d="M1550 499 c0 -30 61 -139 102 -180 54 -55 127 -87 224 -99 598 -74
1364 -78 2041 -10 59 6 126 16 148 21 89 23 182 106 224 200 31 68 24 81 -10
19 -70 -128 -146 -173 -325 -195 -360 -43 -499 -50 -1019 -50 -405 1 -550 4
-705 18 -324 30 -437 45 -486 69 -60 28 -128 97 -164 167 -16 31 -29 49 -30
40z"/>
</g>
</svg>
